# xmcd CD database file
#
# Track frame offsets:
#	150
#	9942
#	21983
#	32121
#	43881
#	55189
#	65770
#	77372
#	86308
#	98295
#	109272
#	122674
#	132823
#	152274
#	175162
#	195073
#	209679
#	223797
#	240790
#	256131
#	269660
#	285633
#	301690
#	318927
#
# Disc length: 4464 seconds
#
# Revision: 0
# Processed by: cddbd v1.5.1PL2 Copyright (c) Steve Scherf et al.
# Submitted via: CDex 1.51
#
DISCID=32116e18
DTITLE=Oscar Peterson - Harold Arlen Songbook
DYEAR=1954
DGENRE=Jazz
TTITLE0=As long as I live
TTITLE1=I gotta right to sing the blues
TTITLE2=Come rain or come shine
TTITLE3=Accentuate the positive
TTITLE4=Between the devil and the deep blue sea
TTITLE5=I've got the world on a string
TTITLE6=It's only a paper moon
TTITLE7=That old black magic
TTITLE8=Let's fall in love
TTITLE9=Stormy weather
TTITLE10=Blues in the night
TTITLE11=Over the rainbow
TTITLE12=Hapiness is a thing called love
TTITLE13=Stormy weather - Alternate
TTITLE14=Over the rainbow - Alternate
TTITLE15=The man that got away
TTITLE16=Ill wind
TTITLE17=Let's fall in love - Alternate
TTITLE18=As long as I live - Alternate
TTITLE19=Come rain or come shine - Alternate
TTITLE20=Accentuate the positive - Alternate
TTITLE21=Between the devil and the deep blue sea - Alternate
TTITLE22=I've got the world on a string - Alternate
TTITLE23=That old black magic - Alternate
EXTD=YEAR: 1954
EXTT0=
EXTT1=
EXTT2=
EXTT3=
EXTT4=
EXTT5=
EXTT6=
EXTT7=
EXTT8=
EXTT9=
EXTT10=
EXTT11=
EXTT12=
EXTT13=
EXTT14=
EXTT15=
EXTT16=
EXTT17=
EXTT18=
EXTT19=
EXTT20=
EXTT21=
EXTT22=
EXTT23=
PLAYORDER=
